<svg xmlns="http://www.w3.org/2000/svg" version="1.0" width="1024.000000pt" height="1024.000000pt" viewBox="-3 -3 1030 1030" preserveAspectRatio="xMidYMid meet"><g id="deeditor_bgCarrier" stroke-width="0">
  <rect id="dee_c_e" x="-3" y="-3" width="1030" height="1030" rx="38.4" fill="#a64d79" strokewidth="0"/>
</g>

<g transform="translate(0.000000,1024.000000) scale(0.100000,-0.100000)" fill="#1a1a1d" stroke="none">
<path d="M0 5120 l0 -5120 5120 0 5120 0 0 5120 0 5120 -5120 0 -5120 0 0 -5120z m3985 2112 c6 -4 97 -131 201 -282 105 -151 310 -446 455 -655 444 -638 471 -678 485 -712 12 -27 14 -152 12 -694 -3 -618 -4 -663 -20 -673 -13 -8 -23 -8 -35 0 -17 10 -18 57 -23 680 l-5 669 -65 92 c-36 50 -134 192 -219 315 -85 123 -309 444 -498 715 -189 270 -343 500 -343 512 0 11 8 25 18 30 21 12 24 13 37 3z m452 -319 c126 -181 296 -425 378 -543 81 -118 200 -289 263 -379 63 -90 117 -172 120 -183 5 -22 -14 -48 -37 -48 -21 0 -16 -5 -223 296 -91 131 -223 322 -295 424 -291 416 -493 711 -493 723 0 18 21 37 41 37 12 0 95 -111 246 -327z m1781 315 c7 -7 12 -19 12 -27 -1 -9 -73 -119 -162 -246 -89 -126 -222 -318 -296 -425 -248 -359 -254 -365 -288 -314 -13 19 -8 30 69 140 46 65 193 277 327 469 134 193 254 365 267 383 25 33 50 41 71 20z m220 0 c30 -30 57 13 -507 -796 -156 -224 -355 -511 -442 -639 l-159 -232 0 -660 c0 -586 -2 -661 -16 -675 -17 -18 -24 -19 -48 -10 -14 6 -16 75 -16 683 l0 677 33 55 c18 30 127 189 242 354 264 379 334 480 514 740 79 116 176 255 214 310 38 55 85 124 103 153 35 52 58 64 82 40z m-2982 -135 c26 -43 58 -93 71 -110 l24 -33 -368 0 c-338 0 -371 -2 -409 -19 -43 -20 -85 -66 -103 -114 -7 -19 -11 -477 -11 -1443 l-1 -1415 28 -50 c19 -35 41 -59 72 -77 l46 -27 2298 -3 c1661 -2 2310 1 2340 9 53 14 121 82 135 135 9 37 10 38 11 9 2 -52 -47 -117 -116 -154 -15 -8 -153 -11 -476 -11 -249 0 -677 -3 -950 -7 -477 -6 -496 -7 -486 -25 8 -15 6 -18 -10 -18 -34 0 -77 -20 -63 -29 16 -10 -27 -41 -56 -41 -11 0 -31 -17 -47 -40 -28 -40 -28 -40 -94 -40 -103 0 -113 -19 -11 -22 56 -1 30 -3 -75 -8 -88 -3 -682 -5 -1320 -5 l-1161 1 -66 31 c-119 56 -185 138 -207 257 -8 41 -11 515 -11 1531 0 1324 2 1477 16 1526 35 117 128 213 242 250 50 16 96 18 383 18 l327 1 48 -77z m4134 40 c64 -31 135 -82 114 -83 -5 0 -25 11 -44 25 -34 25 -53 25 -43 0 3 -10 -2 -15 -17 -15 -12 0 -35 -9 -50 -20 l-28 -20 5 21 c5 19 4 20 -15 8 -11 -7 -23 -25 -26 -41 -4 -22 -11 -28 -33 -29 -16 0 -22 -3 -15 -6 6 -2 12 -9 12 -14 0 -15 -26 -10 -40 6 -11 13 -15 13 -21 3 -6 -10 -70 -14 -281 -16 -150 -1 -279 -4 -286 -7 -7 -2 10 28 36 68 27 39 61 91 76 115 l27 43 282 -3 282 -3 65 -32z m16 -361 c4 -20 4 -264 1 -542 -4 -278 -10 -746 -13 -1040 -4 -294 -8 -537 -10 -539 -2 -2 -5 484 -6 1081 -2 852 0 1084 9 1081 7 -3 16 -21 19 -41z m-19 -2194 c-2 -13 -4 -3 -4 22 0 25 2 35 4 23 2 -13 2 -33 0 -45z m-3072 -1494 c17 -1 77 -4 135 -8 58 -3 141 -8 185 -11 44 -2 145 -7 225 -10 146 -6 256 -11 430 -20 182 -9 292 -8 299 4 4 6 14 -10 23 -34 16 -42 16 -45 0 -54 -9 -5 -123 -12 -252 -15 -129 -4 -280 -8 -335 -11 -275 -13 -783 -17 -803 -6 -16 8 -25 7 -44 -8 -42 -35 -31 -37 222 -45 107 -4 256 -11 330 -16 214 -16 1143 -19 1177 -4 l28 12 -35 15 c-44 20 -29 21 30 3 25 -8 37 -15 27 -15 -10 -1 -15 -6 -12 -11 4 -6 10 -8 15 -5 4 3 10 -1 13 -9 3 -8 -1 -17 -9 -20 -30 -11 -2174 -7 -2174 5 0 18 82 47 249 88 89 22 166 43 171 46 5 3 19 37 31 75 14 43 27 66 33 62 6 -4 25 -8 41 -8z" fill="#1a1a1d"/>
<path d="M5355 3640 c-3 -5 -2 -10 4 -10 5 0 13 5 16 10 3 6 2 10 -4 10 -5 0 -13 -4 -16 -10z" fill="#1a1a1d"/>
<path d="M3955 3600 c4 -6 -22 -10 -70 -10 -48 0 -74 -4 -70 -10 7 -12 365 -14 365 -2 0 4 -19 8 -43 9 -113 4 -129 6 -116 14 9 6 -1 9 -29 9 -26 0 -41 -4 -37 -10z" fill="#1a1a1d"/>
<path d="M4208 3579 c26 -10 132 -8 126 3 -2 3 -37 6 -76 6 -52 -1 -66 -3 -50 -9z" fill="#1a1a1d"/>
<path d="M7440 7006 c0 -9 30 -14 35 -6 4 6 -3 10 -14 10 -12 0 -21 -2 -21 -4z" fill="#1a1a1d"/>
</g>
</svg>