<?xml version="1.0" standalone="no"?>
<!DOCTYPE svg PUBLIC "-//W3C//DTD SVG 20010904//EN"
 "http://www.w3.org/TR/2001/REC-SVG-20010904/DTD/svg10.dtd">
<svg version="1.0" xmlns="http://www.w3.org/2000/svg"
 width="1024.000000pt" height="1536.000000pt" viewBox="0 0 1024.000000 1536.000000"
 preserveAspectRatio="xMidYMid meet">

<g transform="translate(0.000000,1536.000000) scale(0.100000,-0.100000)"
fill="#000000" stroke="none">
<path d="M1753 11165 c-157 -43 -273 -166 -303 -320 -8 -44 -10 -775 -8 -2745
3 -2530 4 -2687 20 -2724 l18 -38 -99 -127 c-54 -69 -214 -272 -354 -451 -141
-179 -265 -343 -276 -365 -11 -22 -27 -67 -36 -100 -20 -80 -20 -277 1 -359
53 -205 244 -396 436 -435 38 -8 1189 -10 3998 -9 l3945 3 60 24 c179 72 316
220 369 399 26 90 31 244 12 342 -10 46 -26 101 -37 122 -19 37 -114 166 -245
333 -35 44 -149 190 -255 325 -105 135 -202 257 -216 272 -19 20 -23 31 -16
40 34 44 34 37 33 2785 -1 2921 3 2741 -54 2836 -38 66 -136 152 -203 179
l-58 23 -3340 2 c-2855 1 -3348 0 -3392 -12z m6670 -336 c56 -25 52 166 55
-2659 1 -1433 0 -2620 -3 -2638 -3 -18 -15 -42 -26 -53 -19 -19 -64 -19 -3328
-19 l-3310 0 -20 26 -21 27 0 2634 0 2635 29 29 29 29 3286 0 c2314 0 3292 -3
3309 -11z m173 -5811 c43 -57 137 -179 209 -273 72 -93 168 -218 214 -277 l82
-108 -3980 0 -3981 0 66 83 c37 45 170 216 297 380 l230 297 3393 0 3393 0 77
-102z m634 -1005 c0 -14 -41 -77 -69 -106 -14 -16 -44 -39 -66 -50 l-40 -22
-3909 -3 c-2663 -1 -3921 1 -3947 8 -67 18 -177 122 -179 168 0 9 827 12 4105
12 2258 0 4105 -3 4105 -7z"/>
<path d="M2811 10323 l-23 -19 1 -1304 c1 -1310 2 -1363 37 -1545 103 -531
431 -997 943 -1339 278 -186 623 -316 986 -372 170 -27 592 -27 750 -1 417 69
766 217 1110 472 413 305 702 745 794 1205 39 198 41 275 41 1595 l0 1284 -23
18 c-22 17 -54 18 -619 13 l-596 -5 -94 -120 c-51 -66 -176 -228 -278 -360
-101 -132 -299 -389 -440 -571 -140 -183 -264 -344 -275 -359 l-20 -26 -62 83
c-34 46 -102 133 -150 194 -48 61 -274 348 -502 638 l-414 526 -536 0 c-295 0
-552 3 -571 6 -26 4 -42 1 -59 -13z m1189 -710 c178 -230 401 -517 494 -638
94 -121 216 -278 273 -350 l102 -130 1 -527 c0 -511 1 -528 19 -538 12 -6 103
-10 227 -10 179 0 210 2 226 17 17 15 18 45 18 537 l0 521 248 320 c136 176
342 442 456 590 114 149 269 350 344 447 l137 177 288 0 288 1 -4 -1212 c-3
-1200 -3 -1214 -25 -1312 -116 -529 -478 -971 -1007 -1231 -205 -101 -378
-155 -621 -196 -183 -32 -493 -32 -678 0 -498 84 -909 296 -1215 628 -195 211
-329 453 -396 710 -54 207 -55 230 -55 1469 l0 1144 278 0 278 0 324 -417z"/>
<path d="M3579 8869 c-20 -20 -20 -24 -16 -617 4 -653 3 -641 68 -836 65 -195
178 -366 350 -530 207 -197 463 -326 778 -393 115 -25 146 -27 351 -28 196 0
240 3 338 23 400 81 749 292 969 586 85 114 162 264 193 377 48 177 50 209 50
826 0 515 -2 583 -16 597 -22 23 -239 23 -272 0 l-22 -15 0 -580 c0 -641 -1
-657 -64 -816 -50 -125 -92 -188 -201 -299 -184 -188 -416 -309 -690 -360
-148 -28 -453 -26 -586 3 -441 98 -766 360 -889 718 -45 131 -50 206 -50 786
0 516 -1 547 -18 562 -15 14 -41 17 -135 17 -105 0 -119 -2 -138 -21z"/>
</g>
</svg>
